<?xml version="1.0" standalone="no"?>
<!DOCTYPE svg PUBLIC "-//W3C//DTD SVG 20010904//EN"
 "http://www.w3.org/TR/2001/REC-SVG-20010904/DTD/svg10.dtd">
<svg version="1.0" xmlns="http://www.w3.org/2000/svg"
 width="1023.000000pt" height="1023.000000pt" viewBox="0 0 1023.000000 1023.000000"
 preserveAspectRatio="xMidYMid meet">
<metadata>
Created by potrace 1.11, written by Peter Selinger 2001-2013
</metadata>
<g transform="translate(0.000000,1023.000000) scale(0.100000,-0.100000)"
fill="#000000" stroke="none">
<path d="M2350 10223 c-87 -12 -156 -28 -235 -54 -183 -61 -327 -151 -461
-285 -172 -174 -280 -375 -331 -618 -19 -88 -24 -307 -10 -411 39 -287 201
-573 432 -761 164 -133 381 -227 575 -251 75 -9 263 -9 330 0 119 17 290 74
383 129 26 15 50 28 53 28 19 0 153 109 229 185 477 479 463 1258 -31 1724
-154 145 -347 248 -547 293 -86 19 -314 31 -387 21z"/>
<path d="M4248 10151 c-125 -40 -231 -132 -292 -255 -70 -140 -69 -119 -69
-926 0 -399 3 -750 6 -781 18 -164 124 -331 260 -409 111 -64 82 -62 962 -62
778 1 802 1 865 21 77 24 144 66 200 125 52 54 64 72 99 143 62 125 62 126 58
971 -2 758 -3 768 -24 820 -12 29 -22 55 -22 57 -4 31 -67 123 -120 175 -72
72 -147 114 -231 130 -34 6 -348 10 -844 9 -735 0 -795 -2 -848 -18z"/>
<path d="M6848 10155 c-160 -44 -293 -181 -354 -365 -17 -51 -19 -111 -22
-811 -3 -842 -3 -841 63 -975 62 -127 155 -212 282 -260 l68 -26 800 0 c847 0
854 0 949 48 123 62 244 216 270 346 3 13 9 43 13 68 14 68 8 1503 -6 1570
-38 187 -194 361 -365 406 -72 19 -1627 19 -1698 -1z"/>
<path d="M1690 7589 c-180 -35 -341 -209 -385 -416 -21 -97 -21 -1519 0 -1603
54 -222 189 -368 386 -417 38 -9 1578 -10 1638 -1 183 29 346 195 398 406 14
59 16 156 16 817 0 829 2 802 -65 943 -39 81 -149 195 -223 231 -102 50 -106
51 -940 50 -429 -1 -800 -5 -825 -10z"/>
<path d="M4260 7582 c-176 -53 -309 -202 -356 -397 -15 -62 -17 -153 -17 -815
0 -833 -1 -818 71 -954 65 -124 198 -234 317 -262 43 -9 1601 -12 1655 -2 167
29 313 166 381 358 l24 65 3 761 c3 850 3 846 -64 982 -42 87 -133 184 -210
224 -110 59 -96 58 -959 57 -704 -1 -796 -3 -845 -17z"/>
<path d="M6855 5046 c-110 -27 -214 -102 -280 -202 -43 -64 -80 -151 -92 -214
-4 -25 -8 -394 -8 -820 l0 -775 23 -59 c53 -140 153 -266 250 -315 111 -56 78
-54 946 -54 842 1 838 0 936 46 52 25 56 27 120 87 85 80 151 209 168 329 9
64 7 1487 -1 1536 -41 226 -196 404 -385 444 -79 16 -1609 14 -1677 -3z"/>
<path d="M1720 5022 c-39 -4 -141 -43 -180 -67 -114 -72 -200 -200 -234 -348
-22 -93 -23 -1488 -1 -1601 40 -213 203 -391 388 -425 77 -14 1601 -11 1661 4
88 21 148 56 222 129 76 77 119 152 150 267 16 58 17 135 17 819 0 836 2 811
-66 949 -36 74 -130 176 -198 215 -108 61 -79 60 -944 60 -434 1 -801 0 -815
-2z"/>
<path d="M4320 5022 c-215 -28 -391 -219 -427 -464 -3 -24 -6 -374 -6 -778 0
-812 -1 -787 65 -929 37 -78 148 -194 218 -228 104 -51 100 -50 950 -50 862 0
835 -2 944 55 77 41 165 135 208 222 70 141 68 117 65 975 l-2 770 -27 73
c-60 165 -163 274 -313 332 l-60 23 -795 1 c-437 1 -806 0 -820 -2z"/>
<path d="M1720 2447 c-147 -18 -283 -119 -359 -264 -68 -131 -65 -89 -69 -924
-2 -647 -1 -768 13 -830 43 -209 197 -378 381 -419 29 -7 339 -10 844 -10 768
1 801 1 856 20 32 11 76 31 98 44 125 74 227 233 252 396 4 25 7 376 7 780 0
822 1 806 -71 944 -66 126 -181 221 -312 257 -52 14 -1530 20 -1640 6z"/>
<path d="M4299 2444 c-203 -35 -365 -214 -405 -449 -4 -22 -8 -357 -8 -745 -1
-717 3 -812 37 -906 59 -161 199 -294 352 -333 53 -14 1592 -15 1663 -1 168
31 319 182 379 375 17 56 18 111 18 845 l0 785 -22 67 c-62 182 -201 322 -358
359 -70 16 -1560 19 -1656 3z"/>
</g>
</svg>
